<?xml version="1.0" encoding="UTF-8" ?><svg xmlns="http://www.w3.org/2000/svg" version="1.1" width="500" height="500">
<path d="M 10.0 10.0 l 0 10 l 0 10 l 0 10 l 0 10 l 0 10 l 0 10 l 0 10 l 0 10 l 0 10 l 0 10 l 0 10 l 0 10 l 0 10 l 0 10 l 0 10 l 0 10 l 0 10 l 0 10 l 0 10 l 0 10 l 0 10 l 0 10 l 0 10 l 0 10 l 0 10 l 0 10 l 0 10 l 0 10 l 0 10 l 0 10 l 0 10 l 0 10 l 0 10 l 0 10 l 0 10 l 0 10 l 0 10 l 0 10 l 0 10 l 0 10 l 0 10 l 0 10 l 0 10 l 0 10 l 0 10 l 0 10 l 0 10 l 0 10 l 0 10 l 8.66025 -5 l 8.66025 -5 l 8.66025 -5 l 8.66025 -5 l 8.66025 -5 l 8.66025 -5 l 8.66025 -5 l -8.66025 -5 l -8.66025 -5 l -8.66025 -5 l 0 10 l -8.66025 -5 l 0 -10 l 8.66025 -5 l -8.66025 -5 l -8.66025 5 l -8.66025 -5 l -8.66025 -5 l 8.66025 -5 l 8.66025 -5 l 8.66025 -5 l -8.66025 -5 l 8.66025 -5 l 8.66025 5 l 0 10 l 8.66025 -5 l 0 -10 l 8.66025 -5 l 8.66025 -5 l 0 10 l 0 10 l 0 10 l 8.66025 -5 l 0 10 l -8.66025 5 l -8.66025 -5 l 0 10 l 8.66025 5 l 0 10 l 0 10 l 8.66025 -5 l 8.66025 -5 l 8.66025 -5 l 8.66025 -5 l 8.66025 -5 l 8.66025 -5 l 8.66025 -5 l -8.66025 -5 l -8.66025 -5 l -8.66025 -5 l 0 10 l -8.66025 -5 l 0 -10 l 8.66025 -5 l -8.66025 -5 l -8.66025 5 l -8.66025 -5 l -8.66025 -5 l 8.66025 -5 l 8.66025 -5 l 8.66025 -5 l -8.66025 -5 l 8.66025 -5 l 8.66025 5 l 0 10 l 8.66025 -5 l 0 -10 l 8.66025 -5 l 8.66025 -5 l 0 10 l 0 10 l 0 10 l 8.66025 -5 l 0 10 l -8.66025 5 l -8.66025 -5 l 0 10 l 8.66025 5 l 0 10 l 0 10 l 8.66025 -5 l 8.66025 -5 l 8.66025 -5 l 8.66025 -5 l 8.66025 -5 l 8.66025 -5 l 8.66025 -5 l -8.66025 -5 l -8.66025 -5 l -8.66025 -5 l 0 10 l -8.66025 -5 l 0 -10 l 8.66025 -5 l -8.66025 -5 l -8.66025 5 l -8.66025 -5 l -8.66025 -5 l 8.66025 -5 l 8.66025 -5 l 8.66025 -5 l -8.66025 -5 l 8.66025 -5 l 8.66025 5 l 0 10 l 8.66025 -5 l 0 -10 l 8.66025 -5 l 8.66025 -5 l 0 10 l 0 10 l 0 10 l 8.66025 -5 l 0 10 l -8.66025 5 l -8.66025 -5 l 0 10 l 8.66025 5 l 0 10 l 0 10 l 8.66025 -5 l 8.66025 -5 l 8.66025 -5 l 8.66025 -5 l 8.66025 -5 l 8.66025 -5 l 8.66025 -5 l -8.66025 -5 l -8.66025 -5 l -8.66025 -5 l 0 10 l -8.66025 -5 l 0 -10 l 8.66025 -5 l -8.66025 -5 l -8.66025 5 l -8.66025 -5 l -8.66025 -5 l 8.66025 -5 l 8.66025 -5 l 8.66025 -5 l -8.66025 -5 l 8.66025 -5 l 8.66025 5 l 0 10 l 8.66025 -5 l 0 -10 l 8.66025 -5 l 8.66025 -5 l 0 10 l 0 10 l 0 10 l 8.66025 -5 l 0 10 l -8.66025 5 l -8.66025 -5 l 0 10 l 8.66025 5 l 0 10 l 0 10 l 8.66025 -5 l 8.66025 -5 l 8.66025 -5 l 8.66025 -5 l 8.66025 -5 l 8.66025 -5 l 8.66025 -5 l -8.66025 -5 l -8.66025 -5 l -8.66025 -5 l 0 10 l -8.66025 -5 l 0 -10 l 8.66025 -5 l -8.66025 -5 l -8.66025 5 l -8.66025 -5 l -8.66025 -5 l 8.66025 -5 l 8.66025 -5 l 8.66025 -5 l -8.66025 -5 l 8.66025 -5 l 8.66025 5 l 0 10 l 8.66025 -5 l 0 -10 l 8.66025 -5 l 8.66025 -5 l 0 10 l 0 10 l 0 10 l 8.66025 -5 l 0 10 l -8.66025 5 l -8.66025 -5 l 0 10 l 8.66025 5 l 0 10 l 0 10 l 8.66025 -5 l 8.66025 -5 l 8.66025 -5 l 8.66025 -5 l 8.66025 -5 l 8.66025 -5 l 8.66025 -5 l -8.66025 -5 l -8.66025 -5 l -8.66025 -5 l 0 10 l -8.66025 -5 l 0 -10 l 8.66025 -5 l -8.66025 -5 l -8.66025 5 l -8.66025 -5 l -8.66025 -5 l 8.66025 -5 l 8.66025 -5 l 8.66025 -5 l -8.66025 -5 l 8.66025 -5 l 8.66025 5 l 0 10 l 8.66025 -5 l 0 -10 l 8.66025 -5 l 8.66025 -5 l 0 10 l 0 10 l 0 10 l 8.66025 -5 l 0 10 l -8.66025 5 l -8.66025 -5 l 0 10 l 8.66025 5 l 0 10 l 0 10 l 8.66025 -5 l 8.66025 -5 l 8.66025 -5 l 8.66025 -5 l 8.66025 -5 l 8.66025 -5 l 8.66025 -5 l -8.66025 -5 l -8.66025 -5 l -8.66025 -5 l -8.66025 -5 l -8.66025 -5 l -8.66025 -5 l -8.66025 -5 l -8.66025 -5 l -8.66025 -5 l -8.66025 -5 l -8.66025 -5 l -8.66025 -5 l -8.66025 -5 l -8.66025 -5 l 0 10 l 0 10 l 0 10 l 8.66025 -5 l 0 10 l -8.66025 5 l -8.66025 -5 l 0 10 l 8.66025 5 l 0 10 l 0 10 l -8.66025 -5 l -8.66025 -5 l -8.66025 -5 l 0 10 l -8.66025 -5 l 0 -10 l 8.66025 -5 l -8.66025 -5 l -8.66025 5 l -8.66025 -5 l -8.66025 -5 l 0 10 l 0 10 l 0 10 l 8.66025 -5 l 0 10 l -8.66025 5 l -8.66025 -5 l 0 10 l 8.66025 5 l 0 10 l 0 10 l -8.66025 -5 l -8.66025 -5 l -8.66025 -5 l 0 10 l -8.66025 -5 l 0 -10 l 8.66025 -5 l -8.66025 -5 l -8.66025 5 l -8.66025 -5 l -8.66025 -5 l 0 10 l 0 10 l 0 10 l 8.66025 -5 l 0 10 l -8.66025 5 l -8.66025 -5 l 0 10 l 8.66025 5 l 0 10 l 0 10 l -8.66025 -5 l -8.66025 -5 l -8.66025 -5 l 0 10 l -8.66025 -5 l 0 -10 l 8.66025 -5 l -8.66025 -5 l -8.66025 5 l -8.66025 -5 l -8.66025 -5 l 0 10 l 0 10 l 0 10 l 8.66025 -5 l 0 10 l -8.66025 5 l -8.66025 -5 l 0 10 l 8.66025 5 l 0 10 l 0 10 l -8.66025 -5 l -8.66025 -5 l -8.66025 -5 l 0 10 l -8.66025 -5 l 0 -10 l 8.66025 -5 l -8.66025 -5 l -8.66025 5 l -8.66025 -5 l -8.66025 -5 l 0 10 l 0 10 l 0 10 l 8.66025 -5 l 0 10 l -8.66025 5 l -8.66025 -5 l 0 10 l 8.66025 5 l 0 10 l 0 10 l -8.66025 -5 l -8.66025 -5 l -8.66025 -5 l 0 10 l -8.66025 -5 l 0 -10 l 8.66025 -5 l -8.66025 -5 l -8.66025 5 l -8.66025 -5 l -8.66025 -5 l 8.66025 -5 l 8.66025 -5 l 8.66025 -5 l -8.66025 -5 l 8.66025 -5 l 8.66025 5 l 0 10 l 8.66025 -5 l 0 -10 l 8.66025 -5 l 8.66025 -5 l -8.66025 -5 l -8.66025 -5 l -8.66025 -5 l 0 10 l -8.66025 -5 l 0 -10 l 8.66025 -5 l -8.66025 -5 l -8.66025 5 l -8.66025 -5 l -8.66025 -5 l 8.66025 -5 l 8.66025 -5 l 8.66025 -5 l -8.66025 -5 l 8.66025 -5 l 8.66025 5 l 0 10 l 8.66025 -5 l 0 -10 l 8.66025 -5 l 8.66025 -5 l 0 10 l 0 10 l 0 10 l 8.66025 -5 l 0 10 l -8.66025 5 l -8.66025 -5 l 0 10 l 8.66025 5 l 0 10 l 0 10 l 8.66025 -5 l 8.66025 -5 l 8.66025 -5 l -8.66025 -5 l 8.66025 -5 l 8.66025 5 l 0 10 l 8.66025 -5 l 0 -10 l 8.66025 -5 l 8.66025 -5 l -8.66025 -5 l -8.66025 -5 l -8.66025 -5 l 0 10 l -8.66025 -5 l 0 -10 l 8.66025 -5 l -8.66025 -5 l -8.66025 5 l -8.66025 -5 l -8.66025 -5 l 8.66025 -5 l 8.66025 -5 l 8.66025 -5 l -8.66025 -5 l 8.66025 -5 l 8.66025 5 l 0 10 l 8.66025 -5 l 0 -10 l 8.66025 -5 l 8.66025 -5 l 0 10 l 0 10 l 0 10 l 8.66025 -5 l 0 10 l -8.66025 5 l -8.66025 -5 l 0 10 l 8.66025 5 l 0 10 l 0 10 l 8.66025 -5 l 8.66025 -5 l 8.66025 -5 l -8.66025 -5 l 8.66025 -5 l 8.66025 5 l 0 10 l 8.66025 -5 l 0 -10 l 8.66025 -5 l 8.66025 -5 l -8.66025 -5 l -8.66025 -5 l -8.66025 -5 l 0 10 l -8.66025 -5 l 0 -10 l 8.66025 -5 l -8.66025 -5 l -8.66025 5 l -8.66025 -5 l -8.66025 -5 l 8.66025 -5 l 8.66025 -5 l 8.66025 -5 l -8.66025 -5 l 8.66025 -5 l 8.66025 5 l 0 10 l 8.66025 -5 l 0 -10 l 8.66025 -5 l 8.66025 -5 l 0 10 l 0 10 l 0 10 l 8.66025 -5 l 0 10 l -8.66025 5 l -8.66025 -5 l 0 10 l 8.66025 5 l 0 10 l 0 10 l 8.66025 -5 l 8.66025 -5 l 8.66025 -5 l -8.66025 -5 l 8.66025 -5 l 8.66025 5 l 0 10 l 8.66025 -5 l 0 -10 l 8.66025 -5 l 8.66025 -5 l -8.66025 -5 l -8.66025 -5 l -8.66025 -5 l 0 10 l -8.66025 -5 l 0 -10 l 8.66025 -5 l -8.66025 -5 l -8.66025 5 l -8.66025 -5 l -8.66025 -5 l 8.66025 -5 l 8.66025 -5 l 8.66025 -5 l -8.66025 -5 l 8.66025 -5 l 8.66025 5 l 0 10 l 8.66025 -5 l 0 -10 l 8.66025 -5 l 8.66025 -5 l 0 10 l 0 10 l 0 10 l 8.66025 -5 l 0 10 l -8.66025 5 l -8.66025 -5 l 0 10 l 8.66025 5 l 0 10 l 0 10 l 8.66025 -5 l 8.66025 -5 l 8.66025 -5 l -8.66025 -5 l 8.66025 -5 l 8.66025 5 l 0 10 l 8.66025 -5 l 0 -10 l 8.66025 -5 l 8.66025 -5 l -8.66025 -5 l -8.66025 -5 l -8.66025 -5 l -8.66025 -5 l -8.66025 -5 l -8.66025 -5 l -8.66025 -5 l -8.66025 -5 l -8.66025 -5 l -8.66025 -5 l -8.66025 -5 l -8.66025 -5 l -8.66025 -5 l -8.66025 -5 l 0 10 l 0 10 l 0 10 l 8.66025 -5 l 0 10 l -8.66025 5 l -8.66025 -5 l 0 10 l 8.66025 5 l 0 10 l 0 10 l -8.66025 -5 l -8.66025 -5 l -8.66025 -5 l 0 10 l -8.66025 -5 l 0 -10 l 8.66025 -5 l -8.66025 -5 l -8.66025 5 l -8.66025 -5 l -8.66025 -5 l 0 10 l 0 10 l 0 10 l 8.66025 -5 l 0 10 l -8.66025 5 l -8.66025 -5 l 0 10 l 8.66025 5 l 0 10 l 0 10 l -8.66025 -5 l -8.66025 -5 l -8.66025 -5 l 0 10 l -8.66025 -5 l 0 -10 l 8.66025 -5 l -8.66025 -5 l -8.66025 5 l -8.66025 -5 l -8.66025 -5 l 0 10 l 0 10 l 0 10 l 8.66025 -5 l 0 10 l -8.66025 5 l -8.66025 -5 l 0 10 l 8.66025 5 l 0 10 l 0 10 l -8.66025 -5 l -8.66025 -5 l -8.66025 -5 l 0 10 l -8.66025 -5 l 0 -10 l 8.66025 -5 l -8.66025 -5 l -8.66025 5 l -8.66025 -5 l -8.66025 -5 l 8.66025 -5 l 8.66025 -5 l 8.66025 -5 l -8.66025 -5 l 8.66025 -5 l 8.66025 5 l 0 10 l 8.66025 -5 l 0 -10 l 8.66025 -5 l 8.66025 -5 l -8.66025 -5 l -8.66025 -5 l -8.66025 -5 l 0 10 l -8.66025 -5 l 0 -10 l 8.66025 -5 l -8.66025 -5 l -8.66025 5 l -8.66025 -5 l -8.66025 -5 l 8.66025 -5 l 8.66025 -5 l 8.66025 -5 l -8.66025 -5 l 8.66025 -5 l 8.66025 5 l 0 10 l 8.66025 -5 l 0 -10 l 8.66025 -5 l 8.66025 -5 l 0 10 l 0 10 l 0 10 l 8.66025 -5 l 0 10 l -8.66025 5 l -8.66025 -5 l 0 10 l 8.66025 5 l 0 10 l 0 10 l 8.66025 -5 l 8.66025 -5 l 8.66025 -5 l -8.66025 -5 l 8.66025 -5 l 8.66025 5 l 0 10 l 8.66025 -5 l 0 -10 l 8.66025 -5 l 8.66025 -5 l -8.66025 -5 l -8.66025 -5 l -8.66025 -5 l 0 10 l -8.66025 -5 l 0 -10 l 8.66025 -5 l -8.66025 -5 l -8.66025 5 l -8.66025 -5 l -8.66025 -5 l 8.66025 -5 l 8.66025 -5 l 8.66025 -5 l -8.66025 -5 l 8.66025 -5 l 8.66025 5 l 0 10 l 8.66025 -5 l 0 -10 l 8.66025 -5 l 8.66025 -5 l 0 10 l 0 10 l 0 10 l 8.66025 -5 l 0 10 l -8.66025 5 l -8.66025 -5 l 0 10 l 8.66025 5 l 0 10 l 0 10 l 8.66025 -5 l 8.66025 -5 l 8.66025 -5 l -8.66025 -5 l 8.66025 -5 l 8.66025 5 l 0 10 l 8.66025 -5 l 0 -10 l 8.66025 -5 l 8.66025 -5 l -8.66025 -5 l -8.66025 -5 l -8.66025 -5 l -8.66025 -5 l -8.66025 -5 l -8.66025 -5 l -8.66025 -5 l -8.66025 -5 l -8.66025 -5 l -8.66025 -5 l -8.66025 -5 l -8.66025 -5 l -8.66025 -5 l -8.66025 -5 l 0 10 l 0 10 l 0 10 l 8.66025 -5 l 0 10 l -8.66025 5 l -8.66025 -5 l 0 10 l 8.66025 5 l 0 10 l 0 10 l -8.66025 -5 l -8.66025 -5 l -8.66025 -5 l 0 10 l -8.66025 -5 l 0 -10 l 8.66025 -5 l -8.66025 -5 l -8.66025 5 l -8.66025 -5 l -8.66025 -5 l 8.66025 -5 l 8.66025 -5 l 8.66025 -5 l -8.66025 -5 l 8.66025 -5 l 8.66025 5 l 0 10 l 8.66025 -5 l 0 -10 l 8.66025 -5 l 8.66025 -5 l -8.66025 -5 l -8.66025 -5 l -8.66025 -5 l -8.66025 -5 l -8.66025 -5 l -8.66025 -5 l -8.66025 -5" stroke="black" fill="transparent"/>
</svg>